name rise35.5848peak51.9257fall54.8793.mot
datacolumns 19
datarows 30
range 14.33994200000000 14.38827000000000
endheader
time	ground_force1_vx	ground_force1_vy	ground_force1_vz	ground_force1_px	ground_force1_py	ground_force1_pz	ground_force2_vx	ground_force2_vy	ground_force2_vz	ground_force2_px	ground_force2_py	ground_force2_pz	ground_torque1_x	ground_torque1_y	ground_torque1_z	ground_torque2_x	ground_torque2_y	ground_torque2_z	
14.33994200000000	52.22880300000000	774.93748400000004	63.99449200000000	0.27747500000000	0.00000000000000	0.13740900000000	0.00000000000000	0.00000000000000	0.00000000000000	0.00000000000000	0.00000000000000	0.00000000000000	0.00000000000000	20.74528200000000	0.00000000000000	0.00000000000000	0.00000000000000	0.00000000000000	
14.34160900000000	51.61401200000000	777.12707200000000	64.07011100000000	0.27669600000000	0.00000000000000	0.13745000000000	0.00000000000000	0.00000000000000	0.00000000000000	0.00000000000000	0.00000000000000	0.00000000000000	0.00000000000000	20.82877200000000	0.00000000000000	0.00000000000000	0.00000000000000	0.00000000000000	
14.34327200000000	50.99949700000000	779.16455199999996	64.13785000000000	0.27593200000000	0.00000000000000	0.13749200000000	0.00000000000000	0.00000000000000	0.00000000000000	0.00000000000000	0.00000000000000	0.00000000000000	0.00000000000000	20.90962900000000	0.00000000000000	0.00000000000000	0.00000000000000	0.00000000000000	
14.34494400000000	50.38596600000000	781.04981999999995	64.19813300000000	0.27518200000000	0.00000000000000	0.13753500000000	0.00000000000000	0.00000000000000	0.00000000000000	0.00000000000000	0.00000000000000	0.00000000000000	0.00000000000000	20.98790300000000	0.00000000000000	0.00000000000000	0.00000000000000	0.00000000000000	
14.34661400000000	49.77405500000000	782.78296699999999	64.25132700000000	0.27444300000000	0.00000000000000	0.13757900000000	0.00000000000000	0.00000000000000	0.00000000000000	0.00000000000000	0.00000000000000	0.00000000000000	0.00000000000000	21.06362500000000	0.00000000000000	0.00000000000000	0.00000000000000	0.00000000000000	
14.34827600000000	49.16433400000000	784.36429399999997	64.29774800000000	0.27371500000000	0.00000000000000	0.13762400000000	0.00000000000000	0.00000000000000	0.00000000000000	0.00000000000000	0.00000000000000	0.00000000000000	0.00000000000000	21.13680100000000	0.00000000000000	0.00000000000000	0.00000000000000	0.00000000000000	
14.34993700000000	48.55730200000000	785.79431599999998	64.33766400000000	0.27299700000000	0.00000000000000	0.13767000000000	0.00000000000000	0.00000000000000	0.00000000000000	0.00000000000000	0.00000000000000	0.00000000000000	0.00000000000000	21.20741600000000	0.00000000000000	0.00000000000000	0.00000000000000	0.00000000000000	
14.35161200000000	47.95339700000000	787.07376799999997	64.37128900000000	0.27228500000000	0.00000000000000	0.13771700000000	0.00000000000000	0.00000000000000	0.00000000000000	0.00000000000000	0.00000000000000	0.00000000000000	0.00000000000000	21.27543800000000	0.00000000000000	0.00000000000000	0.00000000000000	0.00000000000000	
14.35327000000000	47.35299500000000	788.20361300000002	64.39879500000001	0.27158000000000	0.00000000000000	0.13776600000000	0.00000000000000	0.00000000000000	0.00000000000000	0.00000000000000	0.00000000000000	0.00000000000000	0.00000000000000	21.34081600000000	0.00000000000000	0.00000000000000	0.00000000000000	0.00000000000000	
14.35493800000000	46.75641400000000	789.18503999999996	64.42031100000000	0.27087900000000	0.00000000000000	0.13781500000000	0.00000000000000	0.00000000000000	0.00000000000000	0.00000000000000	0.00000000000000	0.00000000000000	0.00000000000000	21.40348300000000	0.00000000000000	0.00000000000000	0.00000000000000	0.00000000000000	
14.35660700000000	46.16391700000000	790.01947199999995	64.43592400000000	0.27018100000000	0.00000000000000	0.13786600000000	0.00000000000000	0.00000000000000	0.00000000000000	0.00000000000000	0.00000000000000	0.00000000000000	0.00000000000000	21.46335700000000	0.00000000000000	0.00000000000000	0.00000000000000	0.00000000000000	
14.35827800000000	45.57571900000000	790.70856700000002	64.44568500000000	0.26948300000000	0.00000000000000	0.13791700000000	0.00000000000000	0.00000000000000	0.00000000000000	0.00000000000000	0.00000000000000	0.00000000000000	0.00000000000000	21.52034500000000	0.00000000000000	0.00000000000000	0.00000000000000	0.00000000000000	
14.35993800000000	44.99198300000000	791.25421600000004	64.44961200000000	0.26878600000000	0.00000000000000	0.13797000000000	0.00000000000000	0.00000000000000	0.00000000000000	0.00000000000000	0.00000000000000	0.00000000000000	0.00000000000000	21.57434100000000	0.00000000000000	0.00000000000000	0.00000000000000	0.00000000000000	
14.36160600000000	44.41283300000000	791.65854700000000	64.44769300000000	0.26808600000000	0.00000000000000	0.13802400000000	0.00000000000000	0.00000000000000	0.00000000000000	0.00000000000000	0.00000000000000	0.00000000000000	0.00000000000000	21.62523300000000	0.00000000000000	0.00000000000000	0.00000000000000	0.00000000000000	
14.36327600000000	43.83835300000000	791.92391799999996	64.43989000000001	0.26738200000000	0.00000000000000	0.13807900000000	0.00000000000000	0.00000000000000	0.00000000000000	0.00000000000000	0.00000000000000	0.00000000000000	0.00000000000000	21.67289800000000	0.00000000000000	0.00000000000000	0.00000000000000	0.00000000000000	
14.36494400000000	43.26858900000000	792.05291999999997	64.42614200000000	0.26667300000000	0.00000000000000	0.13813600000000	0.00000000000000	0.00000000000000	0.00000000000000	0.00000000000000	0.00000000000000	0.00000000000000	0.00000000000000	21.71721100000000	0.00000000000000	0.00000000000000	0.00000000000000	0.00000000000000	
14.36661000000000	42.70355900000000	792.04837099999997	64.40637000000000	0.26595800000000	0.00000000000000	0.13819300000000	0.00000000000000	0.00000000000000	0.00000000000000	0.00000000000000	0.00000000000000	0.00000000000000	0.00000000000000	21.75804300000000	0.00000000000000	0.00000000000000	0.00000000000000	0.00000000000000	
14.36827700000000	42.14325300000000	791.91331000000002	64.38048100000000	0.26523400000000	0.00000000000000	0.13825100000000	0.00000000000000	0.00000000000000	0.00000000000000	0.00000000000000	0.00000000000000	0.00000000000000	0.00000000000000	21.79526100000000	0.00000000000000	0.00000000000000	0.00000000000000	0.00000000000000	
14.36993900000000	41.58763700000000	791.65099599999996	64.34836900000001	0.26450100000000	0.00000000000000	0.13831000000000	0.00000000000000	0.00000000000000	0.00000000000000	0.00000000000000	0.00000000000000	0.00000000000000	0.00000000000000	21.82873600000000	0.00000000000000	0.00000000000000	0.00000000000000	0.00000000000000	
14.37160400000000	41.03665800000000	791.26489500000002	64.30992200000000	0.26375700000000	0.00000000000000	0.13837000000000	0.00000000000000	0.00000000000000	0.00000000000000	0.00000000000000	0.00000000000000	0.00000000000000	0.00000000000000	21.85833900000000	0.00000000000000	0.00000000000000	0.00000000000000	0.00000000000000	
14.37327700000000	40.49024900000000	790.75867800000003	64.26502400000000	0.26300100000000	0.00000000000000	0.13843100000000	0.00000000000000	0.00000000000000	0.00000000000000	0.00000000000000	0.00000000000000	0.00000000000000	0.00000000000000	21.88394500000000	0.00000000000000	0.00000000000000	0.00000000000000	0.00000000000000	
14.37494200000000	39.94832900000000	790.13621000000001	64.21355699999999	0.26223200000000	0.00000000000000	0.13849200000000	0.00000000000000	0.00000000000000	0.00000000000000	0.00000000000000	0.00000000000000	0.00000000000000	0.00000000000000	21.90543300000000	0.00000000000000	0.00000000000000	0.00000000000000	0.00000000000000	
14.37661100000000	39.41081100000000	789.40154299999995	64.15540900000001	0.26144900000000	0.00000000000000	0.13855400000000	0.00000000000000	0.00000000000000	0.00000000000000	0.00000000000000	0.00000000000000	0.00000000000000	0.00000000000000	21.92269300000000	0.00000000000000	0.00000000000000	0.00000000000000	0.00000000000000	
14.37827800000000	38.87760300000000	788.55890299999999	64.09047099999999	0.26065200000000	0.00000000000000	0.13861700000000	0.00000000000000	0.00000000000000	0.00000000000000	0.00000000000000	0.00000000000000	0.00000000000000	0.00000000000000	21.93561800000000	0.00000000000000	0.00000000000000	0.00000000000000	0.00000000000000	
14.37995200000000	38.34861100000000	787.61268199999995	64.01864300000000	0.25983800000000	0.00000000000000	0.13868000000000	0.00000000000000	0.00000000000000	0.00000000000000	0.00000000000000	0.00000000000000	0.00000000000000	0.00000000000000	21.94411400000000	0.00000000000000	0.00000000000000	0.00000000000000	0.00000000000000	
14.38160700000000	37.82374500000000	786.56742599999995	63.93983900000000	0.25900800000000	0.00000000000000	0.13874300000000	0.00000000000000	0.00000000000000	0.00000000000000	0.00000000000000	0.00000000000000	0.00000000000000	0.00000000000000	21.94809800000000	0.00000000000000	0.00000000000000	0.00000000000000	0.00000000000000	
14.38327300000000	37.30291800000000	785.42782399999999	63.85398300000000	0.25816100000000	0.00000000000000	0.13880600000000	0.00000000000000	0.00000000000000	0.00000000000000	0.00000000000000	0.00000000000000	0.00000000000000	0.00000000000000	21.94749700000000	0.00000000000000	0.00000000000000	0.00000000000000	0.00000000000000	
14.38493900000000	36.78604900000000	784.19869300000005	63.76101900000000	0.25729600000000	0.00000000000000	0.13886900000000	0.00000000000000	0.00000000000000	0.00000000000000	0.00000000000000	0.00000000000000	0.00000000000000	0.00000000000000	21.94225300000000	0.00000000000000	0.00000000000000	0.00000000000000	0.00000000000000	
14.38660800000000	36.27307000000000	782.88496999999995	63.66090600000000	0.25641400000000	0.00000000000000	0.13893300000000	0.00000000000000	0.00000000000000	0.00000000000000	0.00000000000000	0.00000000000000	0.00000000000000	0.00000000000000	21.93232000000000	0.00000000000000	0.00000000000000	0.00000000000000	0.00000000000000	
14.38827000000000	35.76392200000000	781.49169400000005	63.55362300000000	0.25551400000000	0.00000000000000	0.13899600000000	0.00000000000000	0.00000000000000	0.00000000000000	0.00000000000000	0.00000000000000	0.00000000000000	0.00000000000000	21.91766700000000	0.00000000000000	0.00000000000000	0.00000000000000	0.00000000000000	
